<svg width="24" height="24" viewBox="0 0 24 24" fill="none" xmlns="http://www.w3.org/2000/svg">
<path opacity="0.2" d="M19.5 8.25V10.5H13.725C13.5789 10.5016 13.436 10.5438 13.3125 10.6219L11.4375 11.8781C11.314 11.9562 11.1711 11.9984 11.025 12H6.50625C6.35682 11.999 6.2106 12.0433 6.08678 12.1269C5.96296 12.2106 5.86735 12.3298 5.8125 12.4688L3 19.5V6C3 5.80109 3.07902 5.61032 3.21967 5.46967C3.36032 5.32902 3.55109 5.25 3.75 5.25H8.74688C8.90904 5.25067 9.06674 5.30323 9.19687 5.4L11.8031 7.35C11.9333 7.44677 12.091 7.49933 12.2531 7.5H18.75C18.9489 7.5 19.1397 7.57902 19.2803 7.71967C19.421 7.86032 19.5 8.05109 19.5 8.25Z" fill="#555555"/>
<path d="M22.6781 10.3688C22.5375 10.1776 22.3539 10.022 22.1423 9.91458C21.9306 9.80712 21.6967 9.75077 21.4594 9.75005H20.25V8.25005C20.25 7.85223 20.092 7.4707 19.8107 7.18939C19.5294 6.90809 19.1478 6.75005 18.75 6.75005H12.2531L9.64688 4.80005C9.38854 4.60283 9.07188 4.49727 8.74688 4.50005H3.75C3.35218 4.50005 2.97064 4.65809 2.68934 4.93939C2.40804 5.2207 2.25 5.60223 2.25 6.00005V19.5001C2.25153 19.6505 2.29716 19.7972 2.38125 19.9219C2.44931 20.0234 2.54143 20.1065 2.64939 20.1638C2.75735 20.221 2.8778 20.2507 3 20.2501H19.5C19.6579 20.2501 19.8118 20.2002 19.9398 20.1076C20.0677 20.0151 20.1631 19.8844 20.2125 19.7344L22.8844 11.7282C22.9586 11.5012 22.9786 11.2601 22.9428 11.024C22.907 10.7879 22.8163 10.5635 22.6781 10.3688ZM8.74688 6.00005L11.3531 7.95005C11.6115 8.14728 11.9281 8.25284 12.2531 8.25005H18.75V9.75005H13.725C13.4279 9.74995 13.1376 9.83805 12.8906 10.0032L11.025 11.2501H6.50625C6.20601 11.2475 5.91217 11.3369 5.66416 11.5061C5.41615 11.6754 5.22584 11.9164 5.11875 12.1969L3.75 15.6094V6.00005H8.74688ZM18.9562 18.7501H4.10625L6.50625 12.7501H11.025C11.3221 12.7502 11.6124 12.6621 11.8594 12.4969L13.725 11.2501H21.4594L18.9562 18.7501Z" fill="#555555"/>
</svg>
